# xmcd
#
# Track frame offsets:
#	150
#	12934
#	24734
#	39251
#	48986
#	60645
#	74812
#	88753
#	107220
#	118938
#	134880
#	151999
#	169675
#	181320
#
# Disc length: 2625 seconds
#
# Revision: 1
# Processed by: cddbd v1.5.2PL0 Copyright (c) Steve Scherf et al.
# Submitted via: audiograbber 1.83.01
#
DISCID=c80a3f0e
DTITLE=Wood and Steel - Poor Boy
DYEAR=2007
DGENRE=Bluegrass
TTITLE0=Poor Boy
TTITLE1=Blue Heartache
TTITLE2=I've Waited as Long as I Can
TTITLE3=Hard Hearted
TTITLE4=Matterhorn
TTITLE5=Them Bones
TTITLE6=Come Back to Me in My Dreams
TTITLE7=Helping Hand
TTITLE8=How Long Have I Been Waiting for You
TTITLE9=Big Country
TTITLE10=Parson's Ridge
TTITLE11=Brown Mountain Light
TTITLE12=Cheek to Cheek
TTITLE13=Far Beyond A Cloudless Sky
EXTD=
EXTT0=
EXTT1=
EXTT2=
EXTT3=
EXTT4=
EXTT5=
EXTT6=
EXTT7=
EXTT8=
EXTT9=
EXTT10=
EXTT11=
EXTT12=
EXTT13=
PLAYORDER=
